# xmcd
# 
# Track frame offsets:
#     150
#     17824
#     38522
#     61912
#     87634
#     106265
#     124772
#     147224
#     170762
#     193609
#     223287
# 
# Disc length: 3203
# 
# Revision: 6
# Processed by: cddbd v1.5.2PL0 Copyright (c) Steve Scherf et al.
# Submitted via: fre:ac v1.0.31
# 
DISCID=9e0c810b
DTITLE=Tedeschi Trucks Band - Made Up Mind
DYEAR=2013
DGENRE=04.3-Blues Rock
TTITLE0=Made Up Mind
TTITLE1=Do I Look Worried
TTITLE2=Idle Wind
TTITLE3=Misunderstood
TTITLE4=Part Of Me
TTITLE5=Whiskey Legs
TTITLE6=It's So Heavy
TTITLE7=All That I Need
TTITLE8=Sweet And Low
TTITLE9=The Storm
TTITLE10=Calling Out To You
EXTD=YEAR: 2013
EXTT0=
EXTT1=
EXTT2=
EXTT3=
EXTT4=
EXTT5=
EXTT6=
EXTT7=
EXTT8=
EXTT9=
EXTT10=
PLAYORDER=
